<svg version="1.1" id="Layer_1" xmlns="http://www.w3.org/2000/svg" xmlns:xlink="http://www.w3.org/1999/xlink" x="0px" y="0px"
	 width="100%" viewBox="0 0 1527 606" enable-background="new 0 0 1527 606" xml:space="preserve">
<path fill="#FFFFFF" opacity="1.000000" stroke="none" 
	d="
M945.000000,607.000000 
	C630.036804,607.000000 315.573608,607.000000 1.055197,607.000000 
	C1.055197,405.060455 1.055197,203.120865 1.055197,1.090649 
	C509.880005,1.090649 1018.760010,1.090649 1527.820068,1.090649 
	C1527.820068,202.999878 1527.820068,404.999908 1527.820068,607.000000 
	C1333.787231,607.000000 1139.643677,607.000000 945.000000,607.000000 
M1099.500000,470.996094 
	C1197.908813,470.996094 1296.317505,470.996094 1394.692871,470.996094 
	C1394.692871,354.579254 1394.692871,238.834183 1394.692871,123.075745 
	C973.094482,123.075745 551.732361,123.075745 130.431824,123.075745 
	C130.431824,239.146408 130.431824,354.898163 130.431824,470.996094 
	C453.303101,470.996094 775.901550,470.996094 1099.500000,470.996094 
z"/>
<path fill="#060606" opacity="1.000000" stroke="none" 
	d="
M1099.000000,470.996094 
	C775.901550,470.996094 453.303101,470.996094 130.431824,470.996094 
	C130.431824,354.898163 130.431824,239.146408 130.431824,123.075745 
	C551.732361,123.075745 973.094482,123.075745 1394.692871,123.075745 
	C1394.692871,238.834183 1394.692871,354.579254 1394.692871,470.996094 
	C1296.317505,470.996094 1197.908813,470.996094 1099.000000,470.996094 
M342.500244,133.630264 
	C275.527008,133.630264 208.553757,133.630264 141.335648,133.630264 
	C141.335648,242.493729 141.335648,351.064667 141.335648,459.788208 
	C555.581787,459.788208 969.625366,459.788208 1383.707397,459.788208 
	C1383.707397,350.956909 1383.707397,242.376648 1383.707397,133.630234 
	C1036.789307,133.630234 690.144775,133.630234 342.500244,133.630264 
z"/>
<path fill="#FFFFFF" opacity="1.000000" stroke="none" 
	d="
M343.000244,133.630249 
	C690.144775,133.630234 1036.789307,133.630234 1383.707397,133.630234 
	C1383.707397,242.376648 1383.707397,350.956909 1383.707397,459.788208 
	C969.625366,459.788208 555.581787,459.788208 141.335648,459.788208 
	C141.335648,351.064667 141.335648,242.493729 141.335648,133.630264 
	C208.553757,133.630264 275.527008,133.630264 343.000244,133.630249 
M294.500244,155.397552 
	C251.229248,155.397552 207.958237,155.397552 164.622055,155.397552 
	C164.622055,250.024506 164.622055,344.114990 164.622055,438.334961 
	C364.058533,438.334961 563.288940,438.334961 762.598267,438.334961 
	C762.598267,343.981079 762.598267,249.894897 762.598267,155.397583 
	C606.744934,155.397583 451.122589,155.397583 294.500244,155.397552 
M1184.794434,264.531769 
	C1169.224609,264.531769 1153.654785,264.531769 1138.083740,264.531769 
	C1138.083740,295.962067 1138.083740,327.354431 1138.083740,358.850281 
	C1154.213379,358.850281 1170.204590,359.762787 1186.045044,358.607513 
	C1203.805786,357.312225 1214.605469,341.316376 1210.137939,324.993378 
	C1207.630249,315.830536 1201.112061,310.771667 1190.862061,308.352722 
	C1203.751709,303.300171 1206.970337,293.890656 1204.738403,282.549469 
	C1202.745605,272.423187 1195.840698,266.552429 1184.794434,264.531769 
M1026.278809,359.013611 
	C1027.680176,358.905365 1029.081421,358.797119 1030.401367,358.695190 
	C1030.401367,326.939514 1030.401367,295.688293 1030.401367,264.251770 
	C1023.292480,264.251770 1016.405640,264.251770 1009.083496,264.251770 
	C1009.083496,277.231262 1009.083496,289.952179 1009.083496,302.775604 
	C997.055664,302.775604 985.465881,302.775604 973.468384,302.775604 
	C973.468384,289.822784 973.468384,277.074127 973.468384,264.353577 
	C966.178894,264.353577 959.304138,264.353577 952.575745,264.353577 
	C952.575745,296.092010 952.575745,327.462189 952.575745,358.736816 
	C959.683899,358.736816 966.437744,358.736816 973.727173,358.736816 
	C973.727173,345.580658 973.727173,332.691864 973.727173,319.852295 
	C985.810547,319.852295 997.349609,319.852295 1009.365417,319.852295 
	C1009.365417,333.079803 1009.365417,345.972839 1009.365417,359.013580 
	C1015.006104,359.013580 1020.163574,359.013580 1026.278809,359.013611 
M1065.995117,318.258484 
	C1065.995117,300.316132 1065.995117,282.373749 1065.995117,264.214844 
	C1058.770264,264.214844 1052.031372,264.214844 1045.251465,264.214844 
	C1045.251465,284.988586 1044.271606,305.646881 1045.534058,326.167267 
	C1046.736694,345.714142 1058.021240,356.748413 1076.691895,359.510895 
	C1099.365601,362.865631 1122.268433,352.191467 1123.244629,324.417267 
	C1123.940430,304.624268 1123.627197,284.795715 1123.736084,264.982910 
	C1123.737549,264.723480 1123.370361,264.462036 1123.248779,264.299896 
	C1116.409546,264.299896 1109.651489,264.299896 1102.768555,264.299896 
	C1102.768555,280.920074 1102.888916,297.237366 1102.691772,313.550812 
	C1102.635864,318.164795 1102.165527,322.903687 1100.987549,327.347290 
	C1098.515503,336.671875 1092.846924,340.333862 1082.803223,339.943542 
	C1074.429932,339.618134 1068.892700,334.821259 1066.990479,326.092499 
	C1066.497437,323.829742 1066.335693,321.494812 1065.995117,318.258484 
z"/>
<path fill="#020202" opacity="1.000000" stroke="none" 
	d="
M295.000244,155.397568 
	C451.122589,155.397583 606.744934,155.397583 762.598267,155.397583 
	C762.598267,249.894897 762.598267,343.981079 762.598267,438.334961 
	C563.288940,438.334961 364.058533,438.334961 164.622055,438.334961 
	C164.622055,344.114990 164.622055,250.024506 164.622055,155.397552 
	C207.958237,155.397552 251.229248,155.397552 295.000244,155.397568 
M478.138977,287.502869 
	C478.138977,306.928894 478.138977,326.354919 478.138977,345.762939 
	C481.530518,345.762939 484.299194,345.762939 487.363800,345.762939 
	C487.363800,326.146057 487.363800,306.771027 487.363800,287.395966 
	C488.764557,288.599365 489.418945,290.006256 489.972015,291.451904 
	C496.200745,307.732849 502.602997,323.951660 508.513062,340.347748 
	C510.225739,345.099213 512.318848,347.420868 517.699402,345.488464 
	C525.148804,326.105896 532.701843,306.453491 540.254944,286.801117 
	C540.586426,286.883484 540.917908,286.965820 541.249390,287.048187 
	C541.249390,306.636414 541.249390,326.224670 541.249390,345.741211 
	C544.380798,345.741211 547.135254,345.741211 549.781128,345.741211 
	C549.781128,320.763458 549.781128,296.053986 549.781128,271.124298 
	C546.606506,271.124298 543.764893,271.373688 540.986694,271.060608 
	C537.576599,270.676331 536.050293,271.952026 534.909180,275.197693 
	C531.826782,283.964569 528.306641,292.578064 524.933350,301.242004 
	C521.506042,310.044434 518.046692,318.834442 514.198914,328.657410 
	C507.882172,312.436157 501.971497,297.310425 496.102325,282.168640 
	C491.676025,270.749329 491.699554,270.737579 479.437622,271.226501 
	C479.147858,271.238068 478.867554,271.486969 478.138733,271.840759 
	C478.138733,276.588501 478.138733,281.546783 478.138977,287.502869 
M307.781586,288.501221 
	C307.781586,307.580841 307.781586,326.660492 307.781586,345.761047 
	C311.096008,345.761047 313.843445,345.761047 316.963562,345.761047 
	C316.963562,326.304840 316.963562,307.091309 316.963562,286.452606 
	C318.608521,288.883209 319.487213,290.178284 320.362610,291.475586 
	C331.243927,307.601501 342.124725,323.727814 353.005829,339.853851 
	C357.750702,346.885895 358.937073,347.329071 367.571381,345.316833 
	C367.571381,320.729431 367.571381,296.150330 367.571381,271.348450 
	C364.561127,271.348450 361.805695,271.348450 358.366821,271.348450 
	C358.366821,290.934296 358.366821,310.382172 358.366821,329.830048 
	C345.817047,312.614075 333.916443,295.423218 322.777039,277.752533 
	C318.946930,271.676666 314.708008,269.748779 307.781586,271.745209 
	C307.781586,276.914124 307.781586,282.207947 307.781586,288.501221 
M243.057724,345.733429 
	C244.708084,345.937683 246.361450,346.120483 248.008362,346.349487 
	C263.181335,348.459503 276.209412,341.267975 282.264465,327.305084 
	C286.440094,317.676117 286.774658,307.635681 284.881439,297.477844 
	C282.155457,282.851837 272.800446,273.012329 259.263336,270.285461 
	C245.740372,267.561401 232.346786,272.680878 225.085861,283.510193 
	C220.307816,290.636444 218.631012,298.728516 218.374908,307.153503 
	C217.787277,326.486206 226.219574,339.956146 243.057724,345.733429 
M396.756500,282.320587 
	C387.373077,296.523010 386.898926,311.664886 392.779266,327.079956 
	C397.873474,340.434113 408.633667,346.439209 422.396484,346.711029 
	C435.324524,346.966400 445.658630,341.663269 451.849152,329.823792 
	C456.904419,320.155487 457.684601,309.750000 455.879181,299.218109 
	C453.566956,285.729828 447.244354,274.830505 433.126831,271.188843 
	C419.347229,267.634369 406.678314,269.819000 396.756500,282.320587 
M692.253113,332.056702 
	C700.088867,347.949982 724.284973,352.161133 737.116028,339.864746 
	C747.859436,329.569122 744.536560,312.057892 730.529175,306.931335 
	C723.861633,304.491028 716.693542,303.454742 709.867310,301.400085 
	C704.157410,299.681488 701.353088,295.628967 701.486938,290.407593 
	C701.624084,285.056549 704.877319,279.910309 710.192810,279.060883 
	C714.709656,278.339050 719.787598,278.524475 724.119019,279.889496 
	C729.829895,281.689209 731.698242,287.212036 732.370361,292.827393 
	C735.818726,292.827393 738.945557,292.827393 742.565186,292.827393 
	C742.034302,290.174469 741.859131,287.675140 741.028320,285.417084 
	C736.446777,272.964813 723.523865,267.096558 708.929138,270.686920 
	C698.476562,273.258240 692.200623,280.451569 692.000854,290.089600 
	C691.787292,300.398315 696.908081,306.801575 707.968140,309.993011 
	C709.557922,310.451752 711.194153,310.749725 712.809875,311.118042 
	C717.019653,312.077789 721.369690,312.641235 725.411011,314.075104 
	C733.997070,317.121490 736.362732,327.822784 729.930603,333.794006 
	C724.659729,338.687164 718.099182,339.358032 711.663391,337.643799 
	C705.481201,335.997131 701.622559,331.404266 700.602905,324.813171 
	C700.455200,323.858948 700.135010,322.931458 699.893555,321.987305 
	C696.590881,321.987305 693.484131,321.987305 689.622559,321.987305 
	C690.487488,325.356842 691.252380,328.336700 692.253113,332.056702 
M621.294556,287.921906 
	C626.285767,279.885193 633.982056,277.379089 642.776917,278.248596 
	C653.392151,279.298065 659.623657,285.985657 662.727783,295.696259 
	C665.863586,295.696259 668.725830,295.696259 671.651306,295.696259 
	C667.674927,280.252686 657.988220,271.186798 644.498230,270.043304 
	C628.227966,268.664124 616.430176,274.731628 610.476685,288.040405 
	C605.002380,300.278046 604.710266,312.963776 609.317627,325.464813 
	C613.672852,337.281738 622.269653,344.501038 634.924744,346.539703 
	C651.994263,349.289490 668.531616,338.223541 670.597656,322.631195 
	C665.572144,321.707367 662.276611,322.471619 659.174561,327.850555 
	C650.707092,342.533112 627.904419,341.904510 620.470337,326.924042 
	C614.223572,314.336060 614.306702,301.280853 621.294556,287.921906 
M187.160477,320.499939 
	C187.160477,328.919556 187.160477,337.339172 187.160477,345.738312 
	C190.649185,345.738312 193.556686,345.738312 196.492859,345.738312 
	C196.492859,320.774902 196.492859,296.102905 196.492859,271.403168 
	C193.290497,271.403168 190.398529,271.403168 187.160477,271.403168 
	C187.160477,287.648560 187.160477,303.574249 187.160477,320.499939 
M574.529785,274.607605 
	C574.529785,298.316193 574.529785,322.024780 574.529785,345.655884 
	C578.028503,345.655884 580.914734,345.655884 583.945007,345.655884 
	C583.945007,333.008331 583.945007,320.707916 583.945007,308.407501 
	C583.945007,296.011810 583.945007,283.616150 583.945007,271.113556 
	C581.176208,271.113556 579.125977,270.837372 577.210632,271.225739 
	C576.197144,271.431274 575.418091,272.792877 574.529785,274.607605 
z"/>
<path fill="#030303" opacity="1.000000" stroke="none" 
	d="
M1185.218750,264.613586 
	C1195.840698,266.552429 1202.745605,272.423187 1204.738403,282.549469 
	C1206.970337,293.890656 1203.751709,303.300171 1190.862061,308.352722 
	C1201.112061,310.771667 1207.630249,315.830536 1210.137939,324.993378 
	C1214.605469,341.316376 1203.805786,357.312225 1186.045044,358.607513 
	C1170.204590,359.762787 1154.213379,358.850281 1138.083740,358.850281 
	C1138.083740,327.354431 1138.083740,295.962067 1138.083740,264.531769 
	C1153.654785,264.531769 1169.224609,264.531769 1185.218750,264.613586 
M1188.431885,322.189117 
	C1186.761963,321.148407 1185.169556,319.379272 1183.408691,319.191620 
	C1175.265259,318.323761 1167.074829,317.895569 1158.647217,317.291595 
	C1158.647217,325.564941 1158.642822,332.691895 1158.654907,339.818817 
	C1158.656006,340.447968 1158.765137,341.076935 1158.866089,342.154785 
	C1165.101318,342.154785 1171.202637,342.267853 1177.298340,342.130707 
	C1189.169189,341.863678 1194.056030,333.651703 1188.431885,322.189117 
M1160.061768,302.820892 
	C1165.512207,302.579590 1171.021973,302.754852 1176.397339,301.987732 
	C1182.601196,301.102417 1185.667847,297.200012 1185.684082,291.567474 
	C1185.699707,286.119476 1182.381714,281.991241 1176.295654,281.175201 
	C1170.629517,280.415466 1164.845947,280.531555 1159.185303,280.265411 
	C1159.185303,288.176910 1159.185303,295.388550 1160.061768,302.820892 
z"/>
<path fill="#070707" opacity="1.000000" stroke="none" 
	d="
M1025.799927,359.013611 
	C1020.163574,359.013580 1015.006104,359.013580 1009.365417,359.013580 
	C1009.365417,345.972839 1009.365417,333.079803 1009.365417,319.852295 
	C997.349609,319.852295 985.810547,319.852295 973.727173,319.852295 
	C973.727173,332.691864 973.727173,345.580658 973.727173,358.736816 
	C966.437744,358.736816 959.683899,358.736816 952.575745,358.736816 
	C952.575745,327.462189 952.575745,296.092010 952.575745,264.353577 
	C959.304138,264.353577 966.178894,264.353577 973.468384,264.353577 
	C973.468384,277.074127 973.468384,289.822784 973.468384,302.775604 
	C985.465881,302.775604 997.055664,302.775604 1009.083496,302.775604 
	C1009.083496,289.952179 1009.083496,277.231262 1009.083496,264.251770 
	C1016.405640,264.251770 1023.292480,264.251770 1030.401367,264.251770 
	C1030.401367,295.688293 1030.401367,326.939514 1030.401367,358.695190 
	C1029.081421,358.797119 1027.680176,358.905365 1025.799927,359.013611 
z"/>
<path fill="#030303" opacity="1.000000" stroke="none" 
	d="
M1066.008545,318.725769 
	C1066.335693,321.494812 1066.497437,323.829742 1066.990479,326.092499 
	C1068.892700,334.821259 1074.429932,339.618134 1082.803223,339.943542 
	C1092.846924,340.333862 1098.515503,336.671875 1100.987549,327.347290 
	C1102.165527,322.903687 1102.635864,318.164795 1102.691772,313.550812 
	C1102.888916,297.237366 1102.768555,280.920074 1102.768555,264.299896 
	C1109.651489,264.299896 1116.409546,264.299896 1123.248779,264.299896 
	C1123.370361,264.462036 1123.737549,264.723480 1123.736084,264.982910 
	C1123.627197,284.795715 1123.940430,304.624268 1123.244629,324.417267 
	C1122.268433,352.191467 1099.365601,362.865631 1076.691895,359.510895 
	C1058.021240,356.748413 1046.736694,345.714142 1045.534058,326.167267 
	C1044.271606,305.646881 1045.251465,284.988586 1045.251465,264.214844 
	C1052.031372,264.214844 1058.770264,264.214844 1065.995117,264.214844 
	C1065.995117,282.373749 1065.995117,300.316132 1066.008545,318.725769 
z"/>
<path fill="#F9F9F9" opacity="1.000000" stroke="none" 
	d="
M478.138855,287.003967 
	C478.138733,281.546783 478.138733,276.588501 478.138733,271.840759 
	C478.867554,271.486969 479.147858,271.238068 479.437622,271.226501 
	C491.699554,270.737579 491.676025,270.749329 496.102325,282.168640 
	C501.971497,297.310425 507.882172,312.436157 514.198914,328.657410 
	C518.046692,318.834442 521.506042,310.044434 524.933350,301.242004 
	C528.306641,292.578064 531.826782,283.964569 534.909180,275.197693 
	C536.050293,271.952026 537.576599,270.676331 540.986694,271.060608 
	C543.764893,271.373688 546.606506,271.124298 549.781128,271.124298 
	C549.781128,296.053986 549.781128,320.763458 549.781128,345.741211 
	C547.135254,345.741211 544.380798,345.741211 541.249390,345.741211 
	C541.249390,326.224670 541.249390,306.636414 541.249390,287.048187 
	C540.917908,286.965820 540.586426,286.883484 540.254944,286.801117 
	C532.701843,306.453491 525.148804,326.105896 517.699402,345.488464 
	C512.318848,347.420868 510.225739,345.099213 508.513062,340.347748 
	C502.602997,323.951660 496.200745,307.732849 489.972015,291.451904 
	C489.418945,290.006256 488.764557,288.599365 487.363800,287.395966 
	C487.363800,306.771027 487.363800,326.146057 487.363800,345.762939 
	C484.299194,345.762939 481.530518,345.762939 478.138977,345.762939 
	C478.138977,326.354919 478.138977,306.928894 478.138855,287.003967 
z"/>
<path fill="#F9F9F9" opacity="1.000000" stroke="none" 
	d="
M307.781586,288.001495 
	C307.781586,282.207947 307.781586,276.914124 307.781586,271.745209 
	C314.708008,269.748779 318.946930,271.676666 322.777039,277.752533 
	C333.916443,295.423218 345.817047,312.614075 358.366821,329.830048 
	C358.366821,310.382172 358.366821,290.934296 358.366821,271.348450 
	C361.805695,271.348450 364.561127,271.348450 367.571381,271.348450 
	C367.571381,296.150330 367.571381,320.729431 367.571381,345.316833 
	C358.937073,347.329071 357.750702,346.885895 353.005829,339.853851 
	C342.124725,323.727814 331.243927,307.601501 320.362610,291.475586 
	C319.487213,290.178284 318.608521,288.883209 316.963562,286.452606 
	C316.963562,307.091309 316.963562,326.304840 316.963562,345.761047 
	C313.843445,345.761047 311.096008,345.761047 307.781586,345.761047 
	C307.781586,326.660492 307.781586,307.580841 307.781586,288.001495 
z"/>
<path fill="#F8F8F8" opacity="1.000000" stroke="none" 
	d="
M242.665619,345.610779 
	C226.219574,339.956146 217.787277,326.486206 218.374908,307.153503 
	C218.631012,298.728516 220.307816,290.636444 225.085861,283.510193 
	C232.346786,272.680878 245.740372,267.561401 259.263336,270.285461 
	C272.800446,273.012329 282.155457,282.851837 284.881439,297.477844 
	C286.774658,307.635681 286.440094,317.676117 282.264465,327.305084 
	C276.209412,341.267975 263.181335,348.459503 248.008362,346.349487 
	C246.361450,346.120483 244.708084,345.937683 242.665619,345.610779 
M232.418503,290.104309 
	C226.848160,301.938141 226.503098,313.912323 232.161102,325.722900 
	C236.119568,333.985779 243.206955,337.894531 252.293839,338.078094 
	C261.144775,338.256927 267.804749,334.179504 271.808960,326.518555 
	C277.801819,315.052856 277.849518,303.083282 272.603333,291.364899 
	C269.011444,283.341797 262.480255,278.635376 253.531998,278.136444 
	C244.393723,277.626862 237.513702,281.652557 232.418503,290.104309 
z"/>
<path fill="#F8F8F8" opacity="1.000000" stroke="none" 
	d="
M396.945496,282.014038 
	C406.678314,269.819000 419.347229,267.634369 433.126831,271.188843 
	C447.244354,274.830505 453.566956,285.729828 455.879181,299.218109 
	C457.684601,309.750000 456.904419,320.155487 451.849152,329.823792 
	C445.658630,341.663269 435.324524,346.966400 422.396484,346.711029 
	C408.633667,346.439209 397.873474,340.434113 392.779266,327.079956 
	C386.898926,311.664886 387.373077,296.523010 396.945496,282.014038 
M446.111328,299.678955 
	C445.519257,297.607391 445.089111,295.472504 444.307587,293.475098 
	C440.538452,283.842346 432.638947,278.132538 423.128082,278.035034 
	C413.602936,277.937347 405.662506,283.448853 401.790344,293.175507 
	C398.012604,302.664948 397.908386,312.369507 401.214447,321.986481 
	C404.779999,332.358337 412.807068,338.026398 423.406891,338.088806 
	C433.135437,338.146088 441.566742,332.544495 444.393311,322.101440 
	C446.249023,315.245331 445.708496,307.740662 446.111328,299.678955 
z"/>
<path fill="#F8F8F8" opacity="1.000000" stroke="none" 
	d="
M692.135193,331.686615 
	C691.252380,328.336700 690.487488,325.356842 689.622559,321.987305 
	C693.484131,321.987305 696.590881,321.987305 699.893555,321.987305 
	C700.135010,322.931458 700.455200,323.858948 700.602905,324.813171 
	C701.622559,331.404266 705.481201,335.997131 711.663391,337.643799 
	C718.099182,339.358032 724.659729,338.687164 729.930603,333.794006 
	C736.362732,327.822784 733.997070,317.121490 725.411011,314.075104 
	C721.369690,312.641235 717.019653,312.077789 712.809875,311.118042 
	C711.194153,310.749725 709.557922,310.451752 707.968140,309.993011 
	C696.908081,306.801575 691.787292,300.398315 692.000854,290.089600 
	C692.200623,280.451569 698.476562,273.258240 708.929138,270.686920 
	C723.523865,267.096558 736.446777,272.964813 741.028320,285.417084 
	C741.859131,287.675140 742.034302,290.174469 742.565186,292.827393 
	C738.945557,292.827393 735.818726,292.827393 732.370361,292.827393 
	C731.698242,287.212036 729.829895,281.689209 724.119019,279.889496 
	C719.787598,278.524475 714.709656,278.339050 710.192810,279.060883 
	C704.877319,279.910309 701.624084,285.056549 701.486938,290.407593 
	C701.353088,295.628967 704.157410,299.681488 709.867310,301.400085 
	C716.693542,303.454742 723.861633,304.491028 730.529175,306.931335 
	C744.536560,312.057892 747.859436,329.569122 737.116028,339.864746 
	C724.284973,352.161133 700.088867,347.949982 692.135193,331.686615 
z"/>
<path fill="#F7F7F7" opacity="1.000000" stroke="none" 
	d="
M621.117493,288.249878 
	C614.306702,301.280853 614.223572,314.336060 620.470337,326.924042 
	C627.904419,341.904510 650.707092,342.533112 659.174561,327.850555 
	C662.276611,322.471619 665.572144,321.707367 670.598022,322.632050 
	C668.531616,338.223541 651.994263,349.289490 634.924744,346.539703 
	C622.269653,344.501038 613.672852,337.281738 609.317627,325.464813 
	C604.710266,312.963776 605.002380,300.278046 610.476685,288.040405 
	C616.430176,274.731628 628.227966,268.664124 644.498230,270.043304 
	C657.988220,271.186798 667.674927,280.252686 671.651306,295.696259 
	C668.725830,295.696259 665.863586,295.696259 662.727783,295.696259 
	C659.623657,285.985657 653.392151,279.298065 642.776917,278.248596 
	C633.982056,277.379089 626.285767,279.885193 621.117493,288.249878 
z"/>
<path fill="#EFEFEF" opacity="1.000000" stroke="none" 
	d="
M187.160477,319.999939 
	C187.160477,303.574249 187.160477,287.648560 187.160477,271.403168 
	C190.398529,271.403168 193.290497,271.403168 196.492859,271.403168 
	C196.492859,296.102905 196.492859,320.774902 196.492859,345.738312 
	C193.556686,345.738312 190.649185,345.738312 187.160477,345.738312 
	C187.160477,337.339172 187.160477,328.919556 187.160477,319.999939 
z"/>
<path fill="#FBFBFB" opacity="1.000000" stroke="none" 
	d="
M574.531494,274.120056 
	C575.418091,272.792877 576.197144,271.431274 577.210632,271.225739 
	C579.125977,270.837372 581.176208,271.113556 583.945007,271.113556 
	C583.945007,283.616150 583.945007,296.011810 583.945007,308.407501 
	C583.945007,320.707916 583.945007,333.008331 583.945007,345.655884 
	C580.914734,345.655884 578.028503,345.655884 574.529785,345.655884 
	C574.529785,322.024780 574.529785,298.316193 574.531494,274.120056 
z"/>
<path fill="#FDFDFD" opacity="1.000000" stroke="none" 
	d="
M1188.666870,322.494507 
	C1194.056030,333.651703 1189.169189,341.863678 1177.298340,342.130707 
	C1171.202637,342.267853 1165.101318,342.154785 1158.866089,342.154785 
	C1158.765137,341.076935 1158.656006,340.447968 1158.654907,339.818817 
	C1158.642822,332.691895 1158.647217,325.564941 1158.647217,317.291595 
	C1167.074829,317.895569 1175.265259,318.323761 1183.408691,319.191620 
	C1185.169556,319.379272 1186.761963,321.148407 1188.666870,322.494507 
z"/>
<path fill="#F8F8F8" opacity="1.000000" stroke="none" 
	d="
M1159.623535,302.710510 
	C1159.185303,295.388550 1159.185303,288.176910 1159.185303,280.265411 
	C1164.845947,280.531555 1170.629517,280.415466 1176.295654,281.175201 
	C1182.381714,281.991241 1185.699707,286.119476 1185.684082,291.567474 
	C1185.667847,297.200012 1182.601196,301.102417 1176.397339,301.987732 
	C1171.021973,302.754852 1165.512207,302.579590 1159.623535,302.710510 
z"/>
<path fill="#020202" opacity="1.000000" stroke="none" 
	d="
M232.622803,289.791077 
	C237.513702,281.652557 244.393723,277.626862 253.531998,278.136444 
	C262.480255,278.635376 269.011444,283.341797 272.603333,291.364899 
	C277.849518,303.083282 277.801819,315.052856 271.808960,326.518555 
	C267.804749,334.179504 261.144775,338.256927 252.293839,338.078094 
	C243.206955,337.894531 236.119568,333.985779 232.161102,325.722900 
	C226.503098,313.912323 226.848160,301.938141 232.622803,289.791077 
z"/>
<path fill="#020202" opacity="1.000000" stroke="none" 
	d="
M446.176208,300.102692 
	C445.708496,307.740662 446.249023,315.245331 444.393311,322.101440 
	C441.566742,332.544495 433.135437,338.146088 423.406891,338.088806 
	C412.807068,338.026398 404.779999,332.358337 401.214447,321.986481 
	C397.908386,312.369507 398.012604,302.664948 401.790344,293.175507 
	C405.662506,283.448853 413.602936,277.937347 423.128082,278.035034 
	C432.638947,278.132538 440.538452,283.842346 444.307587,293.475098 
	C445.089111,295.472504 445.519257,297.607391 446.176208,300.102692 
z"/>
</svg>