<?xml version="1.0" standalone="no"?>
<!DOCTYPE svg PUBLIC "-//W3C//DTD SVG 20010904//EN"
 "http://www.w3.org/TR/2001/REC-SVG-20010904/DTD/svg10.dtd">
<svg version="1.0" xmlns="http://www.w3.org/2000/svg"
 width="586.000000pt" height="530.000000pt" viewBox="0 0 586.000000 530.000000"
 preserveAspectRatio="xMidYMid meet">
<metadata>
Created by potrace 1.16, written by Peter Selinger 2001-2019
</metadata>
<g transform="translate(0.000000,530.000000) scale(0.100000,-0.100000)"
fill="#000000" stroke="none">
<path d="M1612 5283 c-94 -28 -208 -147 -266 -278 -55 -122 -57 -215 -10 -326
22 -54 25 -73 20 -123 -5 -54 -4 -61 23 -95 15 -20 38 -56 50 -81 14 -27 62
-83 118 -136 82 -79 96 -97 97 -125 3 -70 67 -121 244 -192 34 -14 82 -39 107
-56 25 -17 66 -45 93 -62 26 -18 62 -48 80 -68 74 -81 263 -387 372 -601 33
-64 33 -65 44 -38 6 14 20 35 30 47 18 20 18 22 -14 83 -153 294 -217 443
-246 566 -12 53 -13 76 -2 150 7 48 12 123 12 167 -1 92 -21 510 -28 570 -7
62 -42 152 -80 203 -18 26 -48 75 -66 109 -39 75 -149 199 -199 226 -37 19
-90 37 -126 41 -11 1 -42 8 -70 14 -89 19 -129 20 -183 5z"/>
<path d="M4310 5203 c-54 -5 -223 -43 -240 -53 -87 -52 -111 -69 -150 -102
-25 -22 -61 -62 -80 -90 -22 -33 -53 -61 -83 -77 -42 -23 -51 -33 -69 -81 -54
-149 -66 -197 -67 -279 -2 -83 -11 -111 -37 -111 -7 0 -24 -10 -38 -22 -25
-23 -25 -24 -17 -143 4 -68 3 -135 -2 -155 -5 -19 -7 -76 -3 -126 9 -131 -13
-208 -124 -425 -49 -97 -103 -200 -120 -228 -16 -29 -30 -54 -30 -57 0 -2 -15
-26 -32 -53 -29 -43 -66 -103 -76 -123 -2 -4 11 -3 29 2 20 6 56 34 89 68 30
32 70 64 88 71 23 10 40 28 57 60 54 107 189 298 278 394 48 51 134 97 183 97
17 0 37 7 45 16 7 9 54 35 105 59 137 64 182 97 190 143 8 43 27 68 69 90 56
29 164 123 193 170 72 113 171 337 197 444 23 96 25 115 16 186 -6 47 -20 98
-35 129 -15 28 -26 55 -26 61 0 5 -22 29 -48 54 -65 61 -165 92 -262 81z"/>
<path d="M2659 5076 c-59 -23 -177 -97 -193 -122 -9 -12 -17 -33 -20 -46 -2
-12 -25 -67 -51 -121 l-46 -97 10 -98 c6 -53 13 -180 16 -282 3 -102 10 -189
16 -195 5 -5 9 -24 9 -42 0 -42 42 -153 84 -223 18 -30 36 -73 39 -94 12 -74
52 -118 180 -196 77 -48 102 -103 121 -273 10 -93 12 -98 41 -116 50 -30 82
-76 116 -167 30 -77 34 -83 43 -62 7 15 10 133 8 329 l-3 307 32 36 c17 21 44
43 60 51 20 11 29 25 34 55 4 25 24 63 53 102 26 33 53 70 61 80 12 16 12 28
4 58 -9 35 -6 47 23 114 41 92 64 188 64 263 0 46 -6 65 -31 104 -19 30 -33
69 -39 106 -23 161 -138 383 -228 440 -122 77 -320 121 -403 89z"/>
<path d="M827 4460 c-16 -5 -60 -32 -98 -59 -39 -28 -90 -57 -116 -64 -30 -8
-48 -19 -54 -33 -4 -12 -28 -39 -53 -60 -25 -21 -46 -42 -46 -47 0 -4 -9 -20
-20 -35 -41 -57 -21 -183 50 -306 31 -55 108 -133 173 -176 20 -14 39 -33 42
-42 20 -60 176 -152 286 -167 53 -7 66 -13 93 -44 56 -64 82 -71 254 -72 l154
0 26 -32 c29 -34 21 -32 227 -52 230 -22 438 -97 538 -194 56 -55 137 -164
138 -186 0 -16 146 -127 155 -118 3 2 -4 28 -16 56 -11 28 -20 64 -20 80 0 23
-15 40 -101 105 -259 200 -457 383 -497 462 -12 23 -26 70 -31 104 -12 71 -24
90 -58 90 -29 0 -73 41 -73 69 0 29 -40 193 -53 217 -31 54 -103 133 -124 133
-12 1 -33 16 -50 37 -123 155 -241 244 -322 244 -28 0 -65 12 -114 37 -114 59
-211 76 -290 53z"/>
<path d="M4820 3298 c-25 -11 -76 -34 -115 -51 -38 -17 -96 -49 -129 -70 -54
-36 -62 -39 -106 -33 l-48 6 -64 -69 c-82 -88 -163 -155 -208 -170 -19 -6 -71
-19 -115 -29 -79 -17 -79 -17 -131 -82 -52 -64 -65 -91 -25 -51 17 17 34 21
81 21 33 0 69 -5 79 -12 15 -9 31 -9 73 0 58 13 126 57 213 135 51 46 57 49
102 46 58 -4 90 6 103 31 13 24 111 80 140 80 13 0 38 11 56 25 28 21 40 25
69 19 27 -5 41 -2 56 12 11 10 49 22 87 28 78 12 252 13 302 3 19 -5 64 -10
100 -13 75 -6 118 -20 143 -46 19 -19 42 -24 51 -9 7 11 -13 28 -39 32 -11 2
-24 14 -30 27 -5 12 -19 22 -29 22 -11 0 -29 11 -41 24 -12 15 -56 37 -115 57
-84 29 -106 33 -190 31 -87 -1 -98 1 -146 28 -60 35 -64 35 -124 8z"/>
<path d="M3525 3280 c-16 -11 -43 -22 -60 -26 -61 -13 -150 -67 -201 -121 -40
-44 -61 -58 -99 -68 -48 -12 -50 -14 -97 -101 -39 -74 -48 -98 -48 -141 l0
-53 48 0 c43 0 52 -4 89 -42 50 -53 63 -77 63 -121 0 -44 14 -55 89 -69 58
-11 62 -10 86 12 23 22 34 24 94 22 39 -2 72 1 75 7 4 5 57 34 119 64 115 56
132 70 241 201 42 51 66 117 66 180 0 62 -63 156 -132 195 -29 17 -69 34 -88
37 -19 4 -46 12 -60 19 -14 7 -54 15 -90 19 -55 5 -70 3 -95 -14z"/>
<path d="M1583 3245 c-39 -7 -74 -22 -95 -39 -18 -15 -53 -42 -78 -59 -78 -57
-130 -157 -130 -251 0 -45 7 -66 37 -116 35 -59 170 -190 195 -190 7 0 29 -12
49 -26 21 -14 70 -34 109 -44 39 -10 79 -25 88 -33 10 -9 42 -22 72 -31 58
-17 87 -15 192 15 38 10 55 11 81 1 63 -23 101 -14 160 34 16 13 37 24 47 24
10 0 37 16 60 35 47 39 46 39 155 24 75 -10 105 -18 147 -40 10 -5 32 -9 50
-9 l32 0 -36 38 c-19 20 -56 70 -81 110 -41 64 -50 72 -77 72 -35 0 -97 29
-121 56 -9 11 -22 37 -29 59 -25 80 -147 218 -229 259 -210 104 -429 145 -598
111z"/>
<path d="M2674 3180 c-32 -13 -72 -66 -85 -113 -7 -23 -18 -61 -25 -85 -19
-58 -18 -71 10 -144 28 -75 100 -191 169 -270 l50 -58 59 0 59 0 -20 26 c-31
40 -36 85 -13 135 15 35 29 49 70 69 56 27 55 25 52 130 -2 66 -58 211 -98
253 -53 57 -162 84 -228 57z"/>
<path d="M875 3105 c-44 -13 -102 -30 -130 -39 -125 -37 -187 -56 -285 -85
-149 -44 -193 -69 -297 -168 -136 -131 -174 -224 -143 -353 20 -83 43 -122
110 -180 129 -112 251 -170 355 -170 28 0 94 10 146 21 52 12 117 23 144 24
117 7 270 50 376 106 20 10 55 19 77 19 60 0 127 50 175 130 21 36 57 86 78
112 l39 47 -22 12 c-50 26 -160 134 -194 191 -33 54 -37 68 -37 127 1 44 8 82
22 114 21 49 18 56 -14 33 -38 -26 -213 17 -289 70 -11 8 -23 14 -26 13 -3 -1
-41 -12 -85 -24z"/>
<path d="M4961 3121 c-19 -5 -40 -7 -48 -4 -7 3 -31 -7 -52 -21 -30 -21 -43
-25 -62 -18 -27 11 -58 2 -78 -22 -7 -9 -25 -16 -39 -16 -29 0 -131 -56 -139
-77 -10 -27 -61 -44 -108 -37 -41 6 -46 4 -92 -38 -26 -24 -61 -52 -78 -62
-16 -10 -41 -29 -55 -41 -39 -34 -269 -83 -330 -70 -24 5 -41 0 -78 -23 -26
-17 -78 -46 -117 -66 l-70 -35 150 -1 c83 -1 179 -3 215 -5 36 -3 97 -7 135
-10 122 -8 178 -38 259 -138 26 -31 53 -57 61 -57 7 0 28 12 45 27 l32 26 63
-31 c34 -18 65 -32 70 -32 4 0 21 -6 38 -14 18 -7 56 -20 86 -29 54 -16 54
-16 83 8 35 30 66 31 139 7 38 -12 77 -17 129 -14 106 4 109 5 170 35 42 20
63 25 92 20 22 -3 43 -1 51 5 7 6 31 15 52 21 129 32 170 49 204 81 15 14 47
44 71 67 65 60 67 63 81 147 10 59 10 79 1 88 -7 7 -12 19 -12 28 0 21 -70 92
-163 165 -42 33 -77 63 -77 68 0 11 -45 8 -56 -3 -12 -12 -64 6 -64 22 0 15
-52 30 -130 39 -116 14 -341 19 -379 10z"/>
<path d="M2959 2729 c-61 -33 -79 -60 -79 -116 0 -75 80 -143 169 -143 53 0
76 12 124 63 42 47 46 71 18 126 -52 102 -130 125 -232 70z"/>
<path d="M5778 2549 c-10 -6 -18 -14 -18 -19 0 -14 37 -12 46 1 10 17 -9 29
-28 18z"/>
<path d="M2624 2535 c-10 -8 -31 -15 -46 -15 -40 0 -93 -52 -130 -128 -29 -59
-33 -76 -33 -147 0 -65 5 -89 24 -125 51 -97 77 -115 188 -125 57 -6 76 -3
114 14 26 12 54 32 63 46 9 14 25 25 36 25 29 0 79 80 92 147 6 32 21 72 34
90 18 23 24 45 24 82 0 68 -31 91 -122 91 -42 0 -71 5 -86 16 -12 8 -41 17
-64 19 -22 2 -46 9 -51 14 -14 14 -19 14 -43 -4z"/>
<path d="M3167 2506 c-9 -13 -29 -30 -46 -37 -25 -11 -28 -16 -19 -32 6 -12
17 -17 29 -14 10 3 22 1 25 -4 3 -5 13 -9 24 -9 10 0 50 -13 88 -30 49 -21 87
-30 124 -30 35 0 64 -7 86 -20 38 -23 41 -24 79 -9 l28 11 -45 18 c-24 9 -46
23 -48 30 -3 7 -1 11 4 8 64 -29 92 -40 114 -43 41 -5 91 -18 155 -39 39 -13
95 -30 125 -39 30 -8 102 -30 160 -49 101 -32 105 -34 103 -60 -2 -28 -2 -28
64 -28 45 0 98 10 172 33 145 44 266 44 424 -2 59 -17 110 -31 113 -31 11 0
-87 70 -181 129 -53 34 -117 66 -143 73 -26 6 -105 12 -177 14 l-130 3 -69
-36 -70 -35 -85 11 c-89 13 -281 57 -386 90 -33 10 -87 26 -120 35 -141 37
-312 89 -337 102 -37 19 -43 18 -61 -10z"/>
<path d="M2420 2455 c-25 -7 -128 -48 -230 -92 -487 -210 -573 -234 -698 -199
-63 17 -124 12 -220 -19 l-53 -17 -62 27 c-34 15 -69 33 -77 41 -11 9 -20 10
-33 3 -9 -6 -90 -26 -180 -45 -89 -19 -175 -40 -192 -46 -16 -7 -43 -12 -60
-13 -25 0 -32 -5 -41 -35 -12 -37 -63 -80 -96 -80 -10 0 -22 -10 -28 -24 -5
-14 -34 -55 -64 -92 -63 -79 -87 -152 -94 -280 -3 -68 0 -88 17 -120 12 -21
21 -44 21 -51 0 -7 10 -18 23 -24 12 -6 41 -27 64 -45 23 -19 51 -34 62 -34
11 0 30 -4 43 -9 13 -5 55 -15 95 -22 65 -11 79 -10 165 11 51 12 101 27 111
32 29 15 130 39 143 34 7 -3 18 2 24 10 7 8 17 14 23 14 6 0 33 14 61 32 107
67 147 103 181 164 39 70 66 86 121 74 25 -6 40 -6 43 1 1 6 11 18 21 27 10 9
36 53 58 97 75 150 147 229 292 323 68 44 321 167 455 220 71 29 101 47 107
62 5 12 18 35 29 52 12 16 20 30 18 32 -2 2 -24 -3 -49 -9z"/>
<path d="M3005 2391 c0 -60 3 -69 30 -97 17 -18 39 -51 50 -74 18 -40 18 -43
1 -94 -18 -52 -18 -53 4 -96 17 -33 20 -51 14 -79 -10 -49 -13 -141 -5 -141 4
0 13 -15 19 -34 18 -50 50 -86 76 -86 44 0 57 -21 68 -109 11 -91 28 -129 75
-163 17 -13 59 -45 93 -73 129 -104 179 -120 370 -120 179 0 222 54 227 280 4
156 -6 206 -62 305 -23 41 -45 91 -49 110 -9 46 -58 150 -72 150 -5 0 -23 13
-38 29 -15 16 -45 37 -67 46 -31 14 -44 29 -64 73 -14 30 -25 60 -25 67 0 20
-47 36 -76 25 -38 -15 -65 -12 -109 10 -52 26 -131 23 -170 -8 -15 -12 -35
-22 -44 -22 -25 0 -115 95 -106 111 6 9 3 11 -9 6 -11 -5 -25 1 -39 17 -12 12
-38 25 -57 28 l-35 6 0 -67z"/>
<path d="M2971 2306 c-7 -8 -16 -39 -21 -70 -5 -31 -16 -69 -26 -84 -15 -27
-14 -42 16 -278 41 -312 43 -404 12 -500 -22 -66 -41 -98 -145 -246 -36 -52
-37 -56 -28 -103 8 -42 5 -61 -26 -153 -30 -93 -34 -114 -30 -181 6 -98 30
-236 50 -281 29 -69 59 -146 70 -180 15 -46 129 -159 193 -191 38 -18 65 -24
119 -24 64 0 75 3 125 36 76 50 145 124 171 184 31 70 59 181 59 236 0 26 9
68 21 93 l20 47 -21 102 c-14 66 -35 126 -58 170 -31 57 -35 70 -24 87 6 11
12 28 12 39 0 28 -90 159 -149 216 -47 46 -51 53 -51 97 0 44 -3 50 -35 70
-39 25 -48 46 -95 209 -63 224 -130 567 -130 671 0 41 -12 55 -29 34z"/>
<path d="M3660 2285 c0 -2 12 -29 27 -59 21 -42 35 -58 65 -72 22 -10 47 -27
56 -39 9 -11 33 -27 52 -34 78 -31 186 -97 226 -139 43 -45 104 -169 104 -212
0 -30 27 -78 51 -91 11 -6 31 -8 44 -5 37 9 54 -3 82 -58 40 -80 99 -153 147
-181 59 -35 280 -111 378 -131 44 -9 96 -14 116 -10 57 9 237 103 292 153 63
56 77 82 90 171 11 67 10 73 -24 173 -19 57 -43 109 -52 114 -9 6 -39 25 -67
43 -27 18 -73 39 -101 48 -71 22 -79 27 -95 60 -22 51 -94 90 -235 129 -178
48 -264 50 -406 8 -138 -41 -196 -48 -278 -33 -67 13 -196 56 -312 105 -106
45 -160 65 -160 60z"/>
<path d="M2371 2142 c-52 -80 -198 -246 -253 -287 -56 -42 -77 -50 -199 -70
-49 -7 -89 -40 -86 -68 2 -18 -6 -25 -43 -37 -69 -24 -103 -45 -164 -101 -52
-47 -56 -54 -56 -95 0 -41 -4 -46 -51 -84 -107 -84 -159 -180 -159 -293 0 -34
-7 -84 -15 -111 -8 -27 -15 -73 -15 -103 0 -33 -4 -53 -11 -53 -18 0 -2 -98
26 -155 13 -27 27 -57 30 -65 36 -95 105 -142 210 -144 49 -1 72 5 126 32 36
17 76 32 88 32 27 0 58 31 135 138 38 53 68 85 84 89 39 9 80 108 91 220 12
116 19 129 73 136 57 8 74 31 82 114 6 60 3 90 -20 194 -5 22 0 31 26 49 28
20 31 27 27 57 -4 19 -20 56 -37 82 -41 66 -40 103 8 177 36 54 87 108 185
191 l37 33 -34 44 c-19 25 -37 59 -41 75 -9 44 -17 44 -44 3z"/>
<path d="M2733 1992 c-31 -12 -42 -21 -38 -32 3 -9 -1 -40 -9 -70 -8 -30 -19
-96 -25 -147 -14 -117 -54 -274 -87 -341 -17 -35 -48 -71 -92 -110 -122 -105
-152 -141 -152 -181 0 -20 -6 -46 -13 -57 -6 -12 -33 -57 -59 -100 -26 -43
-57 -108 -69 -144 -12 -36 -26 -71 -32 -78 -7 -9 -6 -26 2 -53 7 -23 12 -76
11 -118 -1 -42 2 -116 6 -164 l7 -89 63 -64 c35 -35 71 -75 80 -89 20 -31 118
-82 185 -96 44 -10 60 -8 106 7 45 15 60 27 96 76 23 32 51 82 63 110 l20 53
-24 65 c-25 70 -31 95 -58 237 -19 106 -11 183 33 292 21 54 24 73 19 123 -8
64 4 93 67 165 l28 32 -30 38 c-16 21 -40 61 -52 88 -42 94 -44 365 -4 571 8
44 15 82 15 87 0 9 -6 8 -57 -11z"/>
<path d="M5255 1920 c3 -5 11 -10 16 -10 6 0 7 5 4 10 -3 6 -11 10 -16 10 -6
0 -7 -4 -4 -10z"/>
<path d="M1727 1729 c-16 -4 -34 -12 -40 -17 -7 -5 -32 -13 -57 -17 -81 -12
-118 -27 -124 -48 -4 -17 -10 -19 -59 -13 -63 8 -69 4 -117 -79 -33 -57 -109
-120 -213 -175 -28 -15 -51 -36 -58 -53 -7 -15 -19 -33 -28 -40 -29 -22 -71
-96 -127 -225 -64 -147 -84 -205 -84 -248 0 -28 3 -32 38 -38 75 -12 201 0
308 30 28 8 61 14 73 14 13 0 35 9 50 19 22 16 27 26 24 48 -3 16 5 64 16 108
12 49 18 96 15 120 -11 81 63 217 159 290 42 32 47 40 47 75 0 30 8 48 33 76
48 56 139 119 191 134 26 7 45 18 43 24 -5 15 -57 24 -90 15z"/>
<path d="M3377 113 c-4 -3 -7 -11 -7 -17 0 -6 5 -5 12 2 6 6 9 14 7 17 -3 3
-9 2 -12 -2z"/>
</g>
</svg>
